<?xml version="1.0" encoding="iso-8859-1"?>
<!-- Generator: Adobe Illustrator 18.1.1, SVG Export Plug-In . SVG Version: 6.00 Build 0)  -->
<svg version="1.1" id="Capa_1" xmlns="http://www.w3.org/2000/svg" xmlns:xlink="http://www.w3.org/1999/xlink" x="0px" y="0px"
	 viewBox="0 0 525.153 525.153" style="enable-background:new 0 0 525.153 525.153;" xml:space="preserve">
<g>
	<path d="M381.523,264.152l-27.789-27.811L225.575,364.478l-55.688-55.71l-27.811,27.811l83.499,83.499L381.523,264.152z
		 M446.336,52.471H420.1V0h-52.471v52.471H157.524V0h-52.471v52.471H78.817c-29.146,0-52.275,23.719-52.275,52.559l-0.306,367.651
		c0,28.84,23.435,52.471,52.581,52.471h367.541c28.927,0,52.559-23.632,52.559-52.471V105.052
		C498.917,76.191,475.285,52.471,446.336,52.471z M446.336,472.681H78.817V183.76h367.541v288.921H446.336z"/>
</g>
<g>
</g>
<g>
</g>
<g>
</g>
<g>
</g>
<g>
</g>
<g>
</g>
<g>
</g>
<g>
</g>
<g>
</g>
<g>
</g>
<g>
</g>
<g>
</g>
<g>
</g>
<g>
</g>
<g>
</g>
</svg>
